<svg id="Слой_1" data-name="Слой 1" xmlns="http://www.w3.org/2000/svg" viewBox="0 0 438.84 206.6"><defs><style>.cls-1{fill:#2a4697;stroke:#1d1d1b;stroke-miterlimit:10;}.cls-2{fill:#e41a1c;}.cls-3{fill:#fff;}</style></defs><rect class="cls-1" x="0.5" y="0.5" width="214.14" height="205.6" rx="39.47"/><rect class="cls-2" x="224.69" y="0.5" width="214.14" height="205.6" rx="39.47"/><rect class="cls-3" x="55.94" y="95.01" width="33.74" height="9.43" rx="4.71"/><rect class="cls-3" x="93.07" y="61.77" width="8.23" height="36.23" rx="3.79"/><rect class="cls-3" x="51.55" y="52.35" width="41.52" height="8.62" rx="4.31"/><rect class="cls-3" x="43.96" y="104.44" width="8.74" height="32.51" rx="4.37"/><rect class="cls-3" x="56.85" y="135.45" width="39.1" height="8.6" rx="4.3"/><rect class="cls-3" x="126" y="49.26" width="33.74" height="9.43" rx="4.71"/><rect class="cls-3" x="126" y="135.04" width="33.74" height="9.43" rx="4.71"/><rect class="cls-3" x="116.27" y="61.77" width="7.81" height="30.67" rx="3.83"/><rect class="cls-3" x="115.67" y="102.45" width="7.81" height="28.1" rx="3.9"/><rect class="cls-3" x="164.58" y="103.29" width="7.81" height="28.1" rx="3.9"/><rect class="cls-3" x="163.4" y="61.77" width="7.81" height="30.67" rx="3.9"/><rect class="cls-3" x="277.15" y="52.35" width="41.52" height="8.62" rx="4.31"/><rect class="cls-3" x="268.92" y="61.77" width="8.23" height="33.24" rx="4.12"/><rect class="cls-3" x="319.3" y="61.77" width="8.23" height="33.24" rx="4.12"/><rect class="cls-3" x="281.35" y="93.28" width="33.74" height="9.43" rx="4.71"/><rect class="cls-3" x="270.54" y="102.45" width="8.23" height="33.24" rx="4.12"/><rect class="cls-3" x="319.3" y="104.44" width="8.23" height="33.24" rx="4.12"/><rect class="cls-3" x="277.46" y="136.68" width="41.52" height="8.62" rx="4.31"/><rect class="cls-3" x="352.05" y="50.39" width="33.74" height="9.43" rx="4.71"/><rect class="cls-3" x="352.05" y="136.18" width="33.74" height="9.43" rx="4.71"/><rect class="cls-3" x="342.31" y="62.9" width="7.81" height="30.67" rx="3.83"/><rect class="cls-3" x="341.72" y="103.58" width="7.81" height="28.1" rx="3.9"/><rect class="cls-3" x="390.63" y="104.43" width="7.81" height="28.1" rx="3.9"/><rect class="cls-3" x="389.44" y="62.9" width="7.81" height="30.67" rx="3.9"/></svg>